<svg xmlns="http://www.w3.org/2000/svg" viewBox="0 0 512 512">
  <defs>
    <radialGradient id="bg" cx="50%" cy="35%" r="70%">
      <stop offset="0%" stop-color="#2C6FE0"/>
      <stop offset="100%" stop-color="#0A2E7A"/>
    </radialGradient>
  </defs>

  <!-- Fondo con radio igual al de iOS rounded-square -->
  <rect width="512" height="512" rx="114" fill="url(#bg)"/>

  <!-- Emblema Monark centrado y escalado: paths del splash (viewBox 0 0 175 120, emblem ~x50-126 y9-84) -->
  <!-- translate para centrar: center emblem en (88,46.5), target center (256,248), scale ~4.5 -->
  <g transform="translate(256,248) scale(4.6) translate(-88,-46.5)">
    <path fill="#ffffff" d="M91.4633 9.9646C92.8197 10.328 92.613 11.8113 92.8818 13.0552C92.9619 13.1527 93.0452 13.2475 93.1314 13.3394C95.977 16.3533 97.7613 13.5087 99.7168 11.6762L100.712 12.6627C100.583 14.1693 100.484 14.8587 100.989 16.3245C105.095 19.4148 105.282 15.6738 107.109 15.7179C107.562 15.7288 107.902 16.1859 108.196 16.4895C106.97 19.4411 107.197 20.9414 110.262 22.2221C111.781 21.9102 112.972 20.8374 113.894 21.1348C114.85 22.2868 112.716 24.334 113.442 26.1748C113.893 27.3188 114.226 27.2834 115.264 27.923C116.181 28.488 117.425 27.8502 118.501 27.5056C118.85 27.784 119.176 28.1617 119.482 28.4941C118.209 30.6856 115.095 33.1086 119.717 35.233C120.385 35.5404 122.19 35.2948 122.615 35.8695C122.83 37.8201 118.362 38.0569 119.948 41.4249C120.926 43.5016 123.562 43.0566 124.006 44.3035C123.716 45.4247 121.977 45.495 121.162 46.3604C120.724 46.8257 120.561 47.161 120.249 47.7033C120.165 51.0768 121.079 50.332 123.239 52.0336C124.188 53.9596 121.741 53.6549 120.682 53.7119C120.007 54.173 119.34 54.6973 118.973 55.4431C117.682 58.072 120.77 59.2077 121.14 60.4932C121.028 62.7357 117.559 60.2357 116.026 62.5715C114.254 65.2722 116.807 66.2446 117.024 67.879C116.9 68.3376 116.994 68.1692 116.661 68.5162C115.213 69.0829 114.015 67.0139 111.835 68.4387C108.98 70.3049 112.092 73.6109 110.743 74.7385C110.248 75.1524 108.762 73.6641 107.848 73.4158C105.68 72.8267 104.664 74.3704 104.092 76.2672C104.293 77.1586 104.707 78.5728 103.963 79.3094C102.414 79.63 101.734 77.0506 100.05 77.0412C95.8736 77.0178 97.1366 81.0092 96.037 81.9675C94.7423 82.351 94.3036 79.9003 92.8551 79.3567C91.5027 78.8492 91.089 79.0831 89.7841 79.5357C88.3582 81.0531 88.9384 81.4126 87.8962 82.9279C87.7402 83.1545 87.5306 83.1634 87.3027 83.1625C85.8918 82.4119 86.8898 80.0155 83.493 78.9894C80.4523 79.2853 80.2955 82.1895 78.902 82.1292C78.0961 81.5705 78.609 77.3511 75.5915 77.0696C72.7296 76.8025 69.4287 83.0214 70.7202 76.1344C69.0542 70.6202 65.573 74.7552 64.3532 74.8293C63.9487 74.6739 63.6438 74.2559 63.3513 73.9211C63.8225 72.9188 64.2605 72.003 64.4657 70.9109C63.1234 65.5983 58.9966 69.6259 57.788 68.1981C57.5401 66.5455 60.0897 66.5147 59.0091 62.7332C56.7286 60.6419 56.2895 61.9498 54.0661 61.3121C52.5119 60.8662 55.1681 58.8139 55.5992 58.1954C56.7707 56.5148 55.9302 54.4674 53.9548 53.836C53.5794 53.6545 51.1436 53.5053 51.3376 52.7654C52.1055 50.5943 54.6826 51.4572 54.6322 48.353C54.5867 45.5406 50.895 45.7066 50.8115 44.1845C51.3805 42.8429 54.0788 44.0398 55.2569 40.2299C54.828 38.5969 54.3881 38.0737 52.9525 37.1914C52.4537 36.8848 52.0652 36.5343 52.1896 35.8895C53.1604 34.5563 56.0723 37.0292 57.6474 32.073C57.1688 30.6271 56.2679 29.7918 55.2706 28.6882C56.4526 27.1082 56.9635 27.6854 58.6279 28.231C58.9396 28.1506 59.2513 28.0639 59.5426 27.9246C63.7961 25.8902 60.1374 22.8209 60.5936 21.6722C60.7007 21.4025 60.9446 21.2065 61.2174 21.1122C61.8379 20.8977 62.7998 21.6496 63.3478 21.9096C63.907 22.175 64.445 22.2205 65.0287 22.0016C65.9539 21.6548 66.7905 20.8244 67.1817 19.9213C67.6703 18.7933 67.0738 17.596 66.6505 16.5391L67.7667 15.5109C68.6052 15.9821 69.4898 16.8943 70.4323 17.5408C72.2184 17.6182 72.504 17.3391 73.8461 16.1985C74.2844 14.6024 74.2217 14.2942 74.116 12.6148L75.1974 11.7772C77.0539 13.3409 76.4022 13.792 79.0503 14.7136C80.3355 14.414 80.9527 14.0564 81.8532 13.086C82.1322 12.1102 82.1338 10.3057 83.3372 10.1191C84.1855 10.4285 84.6025 11.6627 85.1318 12.4416C85.5161 13.0159 86.1168 13.4099 86.7968 13.5338C90.0509 14.1523 89.8467 11.0687 91.3709 10.0267L91.4633 9.9646ZM88.417 74.8859C104.114 74.3401 116.413 61.1991 115.918 45.5001C115.423 29.8009 102.323 17.46 86.6222 17.9032C70.8488 18.3484 58.4382 31.5231 58.935 47.2949C59.4318 63.0667 72.647 75.4342 88.417 74.8859Z"/>
    <path fill="#ffffff" d="M86.7367 30.9797C89.2685 30.8003 89.7505 31.6073 90.8551 33.678C93.9751 35.2985 94.5912 38.1571 91.2786 40.0148C92.8505 41.9283 94.1324 44.4832 96.092 45.7966C97.4559 45.093 99.9526 42.8005 100.866 41.5785C100.848 41.3546 100.834 41.1304 100.822 40.9061C100.769 39.7949 100.896 38.7209 101.694 37.8713C102.222 37.3114 102.954 36.9871 103.723 36.9713C104.99 36.9326 105.713 37.5231 106.553 38.3196C106.964 39.4651 106.923 39.8676 106.853 41.0462C104.846 43.8685 104.928 44.7153 104.072 48.0421L101.953 56.05C101.686 57.0607 101.172 59.2635 100.684 60.1107C100.24 60.453 89.8564 60.2486 88.3008 60.2482L79.7238 60.2558C78.1331 60.2639 76.4446 60.3872 74.8666 60.2292C74.5809 60.2007 74.2351 60.2182 74.0505 59.9692C73.6148 59.3813 70.4757 46.3654 69.7889 44.0847C69.4176 42.8519 68.3318 41.9418 68.0249 40.7127C67.8404 39.9743 68.0497 39.1673 68.2016 38.4393C69.5039 36.8591 70.4178 36.8897 72.2998 37.2021L73.6979 38.3711C74.0668 39.8025 74.1157 40.0891 73.9207 41.5498C74.5963 42.6331 77.5189 45.1542 78.7148 45.7723C80.3666 44.848 82.2073 41.7542 83.5036 40.0698C82.0829 39.0794 81.6213 38.3064 81.2725 36.6539C81.4339 36.1853 81.6457 35.5286 82.0206 35.1987C83.3533 34.0257 84.4222 32.6609 85.6304 31.386C85.848 31.1563 86.4291 31.0385 86.7367 30.9797ZM78.5095 48.0381C78.6068 50.8151 78.6551 55.302 78.498 58.0296C79.9207 57.9059 81.708 57.955 83.1835 57.9488C83.0427 56.8882 83.0057 54.8484 82.9254 53.6792C82.4487 53.0523 82.3271 52.8212 81.9825 52.127C83.7054 53.3451 85.7061 55.9823 87.4603 57.206C88.2418 56.635 90.3445 54.5255 91.0079 53.7669C92.07 54.4717 91.2325 54.8315 91.8301 55.5352C91.7999 56.4476 91.7701 57.1066 91.6492 58.0083C93.1176 57.9177 94.8646 57.9594 96.359 57.9691C96.2523 56.0237 96.2132 49.9347 96.355 48.0594C89.466 48.1396 91.9424 48.6395 87.3954 52.8675C85.9393 51.2282 84.5516 49.5449 82.8471 48.1681C81.4221 48.0112 79.9989 48.25 78.5095 48.0381ZM87.3906 43.5374C86.8052 44.5683 86.1489 45.1883 85.5854 46.2869C86.0299 46.9397 86.8236 47.843 87.527 48.1933C88.1383 47.6605 88.8137 46.9225 89.2775 46.2573C89.063 45.8839 87.6567 43.6566 87.3906 43.5374Z"/>
    <path fill="#ffffff" d="M91.0078 53.767C91.541 53.2594 92.1564 52.6279 92.7604 52.2263C91.9317 53.7567 91.8704 53.7953 91.83 55.5352C91.2323 54.8315 92.0699 54.4717 91.0078 53.767Z"/>
  </g>
</svg>
