<svg width="132" height="131" viewBox="0 -28 132 131" fill="none" xmlns="http://www.w3.org/2000/svg">
<path d="M72.4787 -27.9007C72.8202 -28.0271 73.35 -28.0501 73.6799 -27.8675C75.0223 -27.1241 74.5696 -24.6811 75.2112 -23.303C75.9041 -21.8147 76.6916 -20.9605 78.1848 -20.3392C80.5506 -19.3548 82.9067 -19.8285 84.5988 -21.7767C85.3174 -22.604 85.9549 -24.0534 86.9651 -24.4769C87.2866 -24.6114 87.882 -24.6063 88.1799 -24.4183C89.933 -23.3101 88.2699 -20.639 89.0998 -18.6312C89.7792 -16.9879 90.2765 -16.2438 91.8088 -15.428C94.0919 -14.2126 96.4859 -14.5873 98.3244 -16.3323C98.8329 -16.8149 99.7215 -17.6169 100.387 -17.8235C100.73 -17.9301 101.205 -17.9065 101.516 -17.6937C103.666 -16.2204 100.396 -13.4654 101.539 -10.5462C102.186 -8.89459 102.945 -7.87672 104.455 -7.10675C107.329 -5.64169 109.093 -7.06658 111.571 -8.16534C111.923 -8.3214 112.599 -8.31395 112.988 -8.0882C113.322 -7.89264 113.563 -7.57084 113.656 -7.19562C113.9 -6.19384 112.699 -4.68705 112.2 -3.77277C111.531 -2.54398 111.389 -1.09646 111.807 0.238953C112.114 1.23042 112.708 2.18054 113.448 2.90887C116.771 6.17635 119.848 2.72133 121.758 3.80145C122.125 4.00924 122.464 4.36562 122.559 4.78485C122.876 6.18964 120.395 7.87671 119.728 9.04755C119.027 10.277 118.888 11.7814 119.279 13.1345C119.953 15.4698 121.842 17.161 124.319 17.2731C125.403 17.322 126.821 16.992 127.793 17.5593C128.146 17.7613 128.397 18.1033 128.483 18.5007C128.805 19.9318 126.521 20.8623 125.507 21.6296C124.95 22.0543 124.476 22.5784 124.11 23.1755C123.287 24.5382 123.195 26.0714 123.592 27.5895C124.1 29.4818 125.597 30.948 127.499 31.4177C128.587 31.6802 130.815 31.7906 131.059 33.1706C131.394 35.0675 128.66 35.3109 127.424 35.8884C126.526 36.3069 125.756 36.959 125.197 37.777C124.364 39.0125 124.024 40.7138 124.322 42.1745C124.979 45.389 127.131 45.4691 129.316 46.9265C129.733 47.2056 130.122 47.6115 130.201 48.1276C130.257 48.4947 130.16 48.8975 129.944 49.1989C129.169 50.275 127.269 49.9683 126.113 50.1833C124.757 50.4357 123.436 51.2581 122.657 52.4011C122.112 53.202 121.774 54.2386 121.665 55.1999C121.137 59.8623 125.513 60.1198 125.912 62.3884C125.983 62.7928 125.859 63.256 125.605 63.5768C124.691 64.7307 122.041 63.6972 120.741 63.8239C119.268 63.9677 117.969 64.6759 117.037 65.8249C113.073 70.7145 118.351 73.2457 118.47 75.4079C118.494 75.8454 118.351 76.2277 118.063 76.5515C116.959 77.7883 114.002 75.6824 112.077 75.7839C110.457 75.8693 109.204 76.6258 108.14 77.8141C106.471 79.6779 106.363 81.7859 107.432 83.9655C107.757 84.629 108.26 85.4375 108.285 86.1891C108.302 86.6599 108.078 87.1671 107.739 87.4938C106.584 88.6099 104.46 86.5267 103.414 85.9821C102.728 85.6247 101.972 85.4206 101.199 85.3825C97.6436 85.2304 94.6158 88.5924 95.4699 92.0817C95.7148 93.0821 96.212 94.9001 95.301 95.6511C93.5518 97.0924 92.2393 94.1727 91.049 93.3249C89.1043 91.7699 86.9802 91.7551 84.8342 92.8727C82.4165 94.1318 81.8698 96.3121 81.9485 98.8503C81.9818 99.9271 81.3824 101.301 80.1028 101.123C78.7004 100.927 78.2288 98.4362 77.3195 97.5534C75.9234 96.0423 74.8567 95.6699 72.8557 95.529C70.0083 95.954 68.1344 97.2579 67.4865 100.166C67.2633 101.168 66.9013 102.803 65.6613 102.864C63.8255 102.952 63.7508 100.197 63.2043 98.9313C62.8352 98.0653 62.255 97.3057 61.5168 96.7214C60.3188 95.7837 58.6835 95.3864 57.1819 95.6013C53.881 96.0738 53.7211 98.2069 52.1096 100.281C51.8056 100.672 51.3669 101.023 50.8557 101.064C50.4192 101.099 49.9471 100.9 49.6184 100.62C48.8146 99.9333 49.1836 97.9633 49.0705 96.9753C48.91 95.5721 48.2567 94.2889 47.133 93.4157C46.4153 92.858 45.5496 92.49 44.674 92.2585C39.9745 91.0164 39.0392 95.8913 36.76 96.0563C36.3911 96.0829 36.0892 95.9136 35.8225 95.6765C34.5999 94.5893 35.8257 92.0329 35.7483 90.5886C35.6784 89.1695 35.0355 87.8394 33.967 86.903C33.1063 86.1498 32.083 85.6407 30.9914 85.447C28.2987 84.6372 26.3907 87.5003 24.3381 87.7741C22.08 87.5102 22.8091 85.4847 23.4738 84.3825C26.3456 79.621 21.4481 74.0388 16.4065 76.3112C15.3949 76.7672 13.8015 77.3911 12.9885 76.5095C11.6957 75.1074 13.9886 73.3067 14.7063 72.0534C15.1581 71.2717 15.4024 70.387 15.4152 69.4841C15.4409 67.0329 14.0584 65.3339 11.8567 64.1833C9.80045 63.1088 6.98355 64.8963 5.52462 63.6061C4.34475 62.5623 5.91814 61.0374 6.93283 60.3513C9.83753 58.3871 10.2856 54.7531 8.11544 52.0173C6.84194 50.4016 4.91566 50.0269 2.98361 50.0016C0.768349 50.1791 0.0348984 47.3629 2.1047 46.7302C7.39258 45.1134 8.81186 38.8535 3.77462 35.9489C2.62473 35.286 -0.39083 35.154 0.0422021 33.0095C0.287888 31.793 2.82739 31.6615 3.79709 31.3561C4.41719 31.162 5.00061 30.8644 5.52169 30.4763C8.61948 28.1479 8.4878 23.2975 5.15353 21.3327C4.61685 20.9178 3.2523 20.3233 2.9465 19.7399C1.26727 16.5327 6.09923 17.3667 7.09103 17.2536C7.99988 17.1456 8.86839 16.817 9.6213 16.2966C11.9875 14.648 12.8552 11.1234 11.1672 8.71942C10.8201 7.93743 9.15468 6.83266 8.87423 6.15692C7.45015 2.72504 10.999 3.74358 12.3733 4.12274C17.7903 5.61668 21.7381 -0.786886 18.0949 -5.07159C17.447 -5.83381 16.892 -7.55581 18.1731 -8.12433C19.4485 -8.76778 21.1345 -7.23395 22.3576 -6.80988C26.2178 -5.47215 30.4075 -8.88073 29.6985 -12.9651C29.5342 -14.2308 28.1359 -16.4511 29.3069 -17.5325C30.3218 -18.442 31.8056 -17.2844 32.4963 -16.555C36.4185 -12.4126 43.1726 -15.8848 42.1467 -21.473C42.1452 -21.929 41.8955 -23.1351 42.1184 -23.5159C43.8746 -26.5145 46.131 -22.1365 46.7346 -21.5032C47.3849 -20.8182 48.2023 -20.3139 49.1067 -20.0413C52.0431 -19.1794 55.6753 -21.1284 56.174 -24.3265C56.4054 -25.8095 56.1156 -27.1574 57.5598 -27.9046C57.9657 -27.9301 58.4253 -27.9786 58.7981 -27.8177C59.548 -27.4546 60.0096 -26.1324 60.2717 -25.3538C61.3421 -22.1748 64.7219 -20.8477 67.7795 -22.0306C69.5525 -22.7166 70.5208 -24.3626 71.1086 -26.0814C71.328 -26.7227 71.7791 -27.6523 72.4787 -27.9007ZM65.051 -14.2357C36.662 -13.9589 13.8767 9.28775 14.1692 37.6765C14.4616 66.0651 37.7211 88.8372 66.1096 88.529C94.4757 88.2208 117.226 64.9842 116.934 36.6179C116.641 8.25147 93.4175 -14.512 65.051 -14.2357Z" fill="#ffffff"/>
<path d="M64.6743 9.381C68.0747 9.13286 70.7324 10.998 70.9594 14.5265C73.1482 15.0075 74.9404 15.9099 75.8139 18.132C76.342 19.4816 76.3034 20.9877 75.7075 22.3087C74.9857 23.8697 73.7261 24.7705 72.146 25.3341C74.3685 28.467 76.8132 32.286 79.4047 35.1935C82.1092 38.2274 87.5479 30.5928 89.5473 29.0734C90.8714 28.0665 88.719 25.0508 90.9897 22.2853C91.9109 21.1651 93.2456 20.4648 94.6909 20.3429C96.059 20.2255 97.4904 20.6455 98.5327 21.5509C99.6349 22.5083 100.45 23.8119 100.529 25.2941C100.692 28.3628 98.0196 29.6677 97.1567 32.2824C95.9587 35.9127 90.4043 60.354 89.3129 61.4874C89.004 61.8084 88.4406 61.8579 88.0131 61.8996C85.6322 62.1317 83.0915 61.9584 80.6948 61.9552L66.6391 61.9357L51.4399 61.9562C49.142 61.9608 44.0384 62.2306 41.9243 61.5871C41.2511 61.381 39.8858 55.1584 39.5766 53.9552L35.2817 37.2433C35.0005 36.1496 34.0633 32.2027 33.6733 31.4562L33.6264 31.3683C32.4067 29.0275 30.2512 28.3462 30.642 25.0861C30.8082 23.6502 31.5456 22.3417 32.6879 21.4562C33.8277 20.5732 35.2746 20.1844 36.7036 20.3771C38.1538 20.5802 39.4613 21.3592 40.3295 22.5382C41.6985 24.3765 41.2789 26.2247 40.9663 28.2824C42.1484 30.2 46.2272 33.4264 47.9555 35.173C50.6657 37.9109 53.5855 32.9741 54.9008 31.1124L58.9223 25.421C58.4773 25.2164 58.0447 24.9853 57.6274 24.7287C56.3649 23.9594 55.3916 22.6863 55.0561 21.2384C54.7393 19.8433 55.003 18.3786 55.7866 17.1818C56.8787 15.5052 58.3472 14.9175 60.1889 14.5275C60.2211 11.693 62.1211 10.0726 64.6743 9.381ZM81.7836 39.9357C75.2751 40.2475 74.8043 38.3288 69.9868 43.631L65.5063 48.5685C63.7305 46.1906 61.2257 43.9309 59.2954 41.6525C57.2486 39.2365 53.576 40.0011 50.6743 39.9513L49.3305 39.9738L49.3461 58.1447L58.143 58.1417C58.1221 55.6394 58.3743 52.0597 57.2495 49.9406C56.8828 49.2501 56.2898 48.5615 55.8735 47.9093C59.5524 50.3185 62.0959 54.5413 65.4995 56.4679C68.6399 55.0283 71.8162 49.977 75.3491 47.8517C74.0451 49.5853 73.181 50.5351 73.1381 52.8429C73.0023 54.567 72.9868 56.3951 72.9428 58.131L81.7739 58.1447C81.7751 52.2011 81.6602 45.8446 81.7836 39.9357ZM65.4614 31.6281C64.3763 33.3136 63.0089 35.0689 61.9926 36.7267C62.9213 38.0441 63.9506 39.8237 65.5737 40.1583C67.1621 39.7134 68.2006 38.1315 69.0795 36.7609C68.6461 35.994 66.0167 31.9603 65.4614 31.6281Z" fill="#ffffff"/>
</svg>
